# xmcd
#
# Track frame offsets: 
#        150
#        15342
#        33934
#        47877
#        64054
#        76062
#        90937
#        106732
#        122589
#        135177
#        150658
#        165699
#        177825
#        191740
#        209090
#        222774
#        235357
#        249761
#        265677
#        280062
#
# Disc length: 3903 seconds
#
# Revision: 0
# Processed by: cddbd v1.5.2PL0 Copyright (c) Steve Scherf et al.
# Submitted via: ExactAudioCopy v1.1
#
DISCID=fb0f3d14
DTITLE=Jads and Jadson - Ao Vivo
DYEAR=2013
DGENRE=Sertanejo
TTITLE0=Ando Falando Sozinho (Tu Y Yo Somos Uno Mismo)
TTITLE1=Planos Impossíveis
TTITLE2=Jeito Carinhoso
TTITLE3=Cara Na Porta
TTITLE4=Tomando Uma Gelada
TTITLE5=Conto De Fadas
TTITLE6=Na Sua Estante
TTITLE7=Do Caipira Ao Universitário
TTITLE8=Eucalipto (Eu Vou Plantar Uns Eucaliptos)
TTITLE9=Moça
TTITLE10=Com Todos Menos Comigo (Komm Doch Noch Mal)
TTITLE11=Overdose De Amor
TTITLE12=Vai Embora
TTITLE13=Minuto De Fragilidade (Part. Esp.: Israel and Rodolfo)
TTITLE14=O Amor Não Deixa (Love Won't Let Me)
TTITLE15=Eu Sempre Vou Te Amar
TTITLE16=É Sempre Assim (Part. Esp.: Fred and Gustavo)
TTITLE17=Coração Idiota
TTITLE18=Casa Caída
TTITLE19=Vem Pra Campo Grande
EXTD=
EXTT0=
EXTT1=
EXTT2=
EXTT3=
EXTT4=
EXTT5=
EXTT6=
EXTT7=
EXTT8=
EXTT9=
EXTT10=
EXTT11=
EXTT12=
EXTT13=
EXTT14=
EXTT15=
EXTT16=
EXTT17=
EXTT18=
EXTT19=
PLAYORDER=
